# xmcd
#
# Track frame offsets:
# 150
# 17890
# 28132
#
# Disc length: 592 seconds
#
#
# Revision: 6
# Processed by: cddbd v1.5.2PL0 Copyright (c) Steve Scherf et al.
# Submitted via: FreeRIP 2.30 
#
DISCID=1e024e03
DTITLE=Stereophonics - Pick A Part That's New - cd.2
DYEAR=1999
DGENRE=Rock
TTITLE0=Pick A Part That's New (*Acoustic Version)
TTITLE1=In My Day
TTITLE2=Something In The Way (*Written By Kurt Cobain)
EXTD=
EXTT0=
EXTT1=
EXTT2=
PLAYORDER=
